<svg xmlns="http://www.w3.org/2000/svg" viewBox="0 0 198.42 27.94"><defs><style>.cls-1{fill:#2d170d;}</style></defs><g id="Layer_2" data-name="Layer 2"><g id="Layer_1-2" data-name="Layer 1"><path class="cls-1" d="M5.52,27.56a8.68,8.68,0,0,1-5-1.44L0,23.8a9,9,0,0,0,5.61,2c2.32,0,4-1.38,4-3.44s-1.18-3.14-3.79-4.05c-3.34-1.17-4.93-3-4.93-5.43S2.64,8.19,6.43,8.19a7.4,7.4,0,0,1,4,1.08L10,10.92A6.72,6.72,0,0,0,6.37,9.83c-2.35,0-3.58,1.53-3.58,3s1,2.65,3.43,3.56c3.35,1.26,5.38,2.84,5.38,5.87,0,3.23-2.35,5.34-6.08,5.34"/><path class="cls-1" d="M35,27.65,25.78,17.08c-1.59-1.82-3.29-3.84-4.58-5.4l-.06,0c.06,1.73.06,3.49.06,5.2V27.24h-2V8.51h1.38l8.69,10c1.29,1.47,3,3.49,4.26,5l0,0c0-1.67,0-3.37,0-5v-10h2V27.65Z"/><path class="cls-1" d="M53,9.89a7.74,7.74,0,0,0-7.8,8,7.81,7.81,0,1,0,15.61,0A7.76,7.76,0,0,0,53,9.89m0,17.67a9.69,9.69,0,1,1,9.81-9.72A9.61,9.61,0,0,1,53,27.56"/><polygon class="cls-1" points="103.5 10.21 103.5 16.96 110.31 16.96 110.31 18.67 103.5 18.67 103.5 27.24 101.53 27.24 101.53 8.51 111.48 8.51 111.48 10.21 103.5 10.21"/><polygon class="cls-1" points="120.69 27.24 120.69 8.51 122.66 8.51 122.66 25.54 131.38 25.54 131.38 27.24 120.69 27.24"/><path class="cls-1" d="M148.57,14.62a30.23,30.23,0,0,1-1-2.88h-.06c-.3,1-.68,2-1,2.88l-2.26,5.75h6.57Zm5.05,12.62L151.48,22h-7.93l-2.11,5.26H139.5l7.75-19.11h.62l7.75,19.11Z"/><polygon class="cls-1" points="175.2 27.24 166.8 18.26 166.8 27.24 164.83 27.24 164.83 8.51 166.8 8.51 166.8 17.52 174.96 8.51 177.28 8.51 168.86 17.79 177.63 27.24 175.2 27.24"/><polygon class="cls-1" points="187.62 27.24 187.62 8.51 197.4 8.51 197.4 10.21 189.59 10.21 189.59 16.96 195.99 16.96 195.99 18.67 189.59 18.67 189.59 25.54 198.43 25.54 198.43 27.24 187.62 27.24"/><polygon class="cls-1" points="84.15 8.92 76.67 27.94 76.11 27.94 68.63 8.92 84.15 8.92"/><polygon class="cls-1" points="85.25 8.92 81.87 17.51 85.97 27.94 86.53 27.94 94.01 8.92 85.25 8.92"/><path class="cls-1" d="M84.11,7.73a7.74,7.74,0,0,0-15.47,0Z"/><path class="cls-1" d="M86.76.48a6.71,6.71,0,0,0-4.27,1.27,7.87,7.87,0,0,1,2.47,6H94A7.25,7.25,0,0,0,86.76.48"/></g></g></svg>